Coordinates
version=1
nRows=17
nColumns=38
inDegrees=no

Units are S.I. units (second, meters, Newtons, ...)
If the header above contains a line with 'inDegrees', this indicates whether rotational values are in degrees (yes) or radians (no).

endheader
time	pelvis_tilt	pelvis_list	pelvis_rotation	pelvis_tx	pelvis_ty	pelvis_tz	hip_flexion_r	hip_adduction_r	hip_rotation_r	knee_angle_r	ankle_angle_r	subtalar_angle_r	mtp_angle_r	hip_flexion_l	hip_adduction_l	hip_rotation_l	knee_angle_l	ankle_angle_l	subtalar_angle_l	mtp_angle_l	lumbar_extension	lumbar_bending	lumbar_rotation	arm_flex_r	arm_add_r	arm_rot_r	elbow_flex_r	pro_sup_r	wrist_flex_r	wrist_dev_r	arm_flex_l	arm_add_l	arm_rot_l	elbow_flex_l	pro_sup_l	wrist_flex_l	wrist_dev_l
1.69	2.92566	1.14184	1.68749	0.590168	-0.463343	1.00769	0.505693	-0.14832	0.0226954	1.09061	-0.597099	0	0	0.655392	0.0114725	-0.207325	0.253676	-0.219401	0	0	0.413976	-0.0748373	0.0907412	-0.19307	-0.30132	0.19224	0.533209	1.18677	0	0	-0.321107	-0.121258	-0.513235	0.460709	1.0084	0	0
1.7	2.92244	1.14655	1.68517	0.590349	-0.474585	1.00958	0.523358	-0.148387	0.0271119	1.11968	-0.570802	0	0	0.636786	0.0117202	-0.212814	0.250848	-0.210624	0	0	0.409129	-0.073169	0.0903476	-0.193658	-0.30118	0.211939	0.523436	1.18424	0	0	-0.317803	-0.120365	-0.515675	0.451896	1.01207	0	0
1.71	2.92441	1.14778	1.6816	0.590665	-0.485842	1.01118	0.543239	-0.14795	0.0264583	1.14576	-0.53373	0	0	0.622573	0.0121201	-0.211219	0.248038	-0.204184	0	0	0.409581	-0.0713216	0.0857593	-0.196281	-0.300968	0.23231	0.514701	1.18573	0	0	-0.317542	-0.119062	-0.520468	0.445257	1.01511	0	0
1.72	2.92935	1.15003	1.67794	0.591024	-0.49725	1.01281	0.560632	-0.14685	0.0236741	1.16828	-0.49252	0	0	0.607455	0.0124705	-0.208727	0.245776	-0.197888	0	0	0.409652	-0.0694902	0.0779505	-0.199602	-0.300608	0.251741	0.507131	1.18961	0	0	-0.318774	-0.117533	-0.52731	0.440173	1.01751	0	0
1.73	2.93805	1.154	1.67197	0.591276	-0.508722	1.01461	0.574924	-0.143895	0.0197185	1.18542	-0.452685	0	0	0.590226	0.0114037	-0.206383	0.243111	-0.191953	0	0	0.40805	-0.0665403	0.0690675	-0.203967	-0.299891	0.267706	0.500821	1.19418	0	0	-0.31959	-0.116167	-0.534888	0.434874	1.02044	0	0
1.74	2.95122	1.15566	1.66377	0.591522	-0.520241	1.01629	0.590494	-0.140269	0.0119903	1.19718	-0.416379	0	0	0.576012	0.00939048	-0.201457	0.241061	-0.187273	0	0	0.409923	-0.0628813	0.0581	-0.210236	-0.298876	0.280454	0.495535	1.19964	0	0	-0.321454	-0.114718	-0.544035	0.429549	1.0242	0	0
1.75	2.96547	1.15591	1.6547	0.591727	-0.531589	1.01782	0.607155	-0.136156	0.00374301	1.20387	-0.383755	0	0	0.563577	0.00719526	-0.197769	0.239076	-0.183833	0	0	0.413179	-0.059064	0.0473032	-0.217481	-0.297582	0.28976	0.491141	1.20429	0	0	-0.323605	-0.113288	-0.553701	0.42463	1.02958	0	0
1.76	2.97864	1.15591	1.64624	0.5919	-0.542739	1.01929	0.623887	-0.131899	-0.00344628	1.20596	-0.354531	0	0	0.550713	0.005498	-0.196025	0.235608	-0.181349	0	0	0.415922	-0.0556569	0.0371616	-0.224637	-0.296096	0.296509	0.487202	1.20823	0	0	-0.32547	-0.111908	-0.563566	0.420198	1.03598	0	0
1.77	2.9878	1.1576	1.63906	0.591945	-0.553535	1.02085	0.639385	-0.12707	-0.00608317	1.20393	-0.329805	0	0	0.535072	0.00385132	-0.197024	0.230036	-0.179961	0	0	0.415097	-0.0527207	0.0301267	-0.230445	-0.294457	0.300697	0.483262	1.21071	0	0	-0.325618	-0.110955	-0.571468	0.415689	1.04186	0	0
1.78	2.99777	1.16085	1.63101	0.591887	-0.564332	1.02254	0.652105	-0.121476	-0.0083535	1.19696	-0.306522	0	0	0.517421	0.00137425	-0.200505	0.224168	-0.178485	0	0	0.41234	-0.0492402	0.0239488	-0.236085	-0.291941	0.302182	0.47793	1.20968	0	0	-0.324113	-0.110258	-0.579651	0.409957	1.04773	0	0
1.79	3.00888	1.16251	1.62197	0.591818	-0.57496	1.02404	0.665792	-0.115719	-0.0114041	1.18561	-0.287404	0	0	0.501425	-0.00135651	-0.203735	0.217847	-0.177692	0	0	0.411327	-0.0453512	0.0186098	-0.242525	-0.289147	0.301037	0.472522	1.2061	0	0	-0.3224	-0.109615	-0.587135	0.404789	1.05157	0	0
1.8	3.01954	1.16152	1.61285	0.591653	-0.585413	1.02527	0.681375	-0.109546	-0.0142077	1.1695	-0.268624	0	0	0.488106	-0.00393056	-0.206613	0.210846	-0.177483	0	0	0.413488	-0.0415422	0.0140679	-0.248689	-0.286441	0.300249	0.465983	1.20217	0	0	-0.32113	-0.109124	-0.594662	0.399868	1.0556	0	0
1.81	3.03024	1.15927	1.60378	0.591398	-0.595773	1.02631	0.697343	-0.103231	-0.0174965	1.14933	-0.249479	0	0	0.476065	-0.00653973	-0.20907	0.203029	-0.1783	0	0	0.41705	-0.0377465	0.0092959	-0.254112	-0.28381	0.300746	0.458177	1.19723	0	0	-0.320284	-0.109342	-0.600373	0.394261	1.0639	0	0
1.82	3.04176	1.15729	1.59416	0.591035	-0.606096	1.02726	0.711699	-0.0965066	-0.0210969	1.12465	-0.233366	0	0	0.463568	-0.00964755	-0.211381	0.194533	-0.179412	0	0	0.420432	-0.0338096	0.00519545	-0.259221	-0.280548	0.300494	0.448917	1.19123	0	0	-0.319068	-0.110241	-0.603755	0.388954	1.07095	0	0
1.83	3.05259	1.15426	1.58499	0.59061	-0.61628	1.02797	0.726001	-0.0898367	-0.0245004	1.09568	-0.216277	0	0	0.452395	-0.0127124	-0.213361	0.186198	-0.180419	0	0	0.424755	-0.0299667	0.00223538	-0.264104	-0.27741	0.300716	0.439133	1.18449	0	0	-0.317222	-0.111164	-0.607168	0.383711	1.07781	0	0
1.84	3.06394	1.15147	1.57566	0.590115	-0.626445	1.02859	0.738521	-0.0827981	-0.0272841	1.06249	-0.199744	0	0	0.441174	-0.016143	-0.214794	0.178445	-0.181376	0	0	0.428143	-0.0256298	-0.00174147	-0.267905	-0.27488	0.302	0.429417	1.17788	0	0	-0.314687	-0.111488	-0.612128	0.377992	1.0831	0	0
1.85	3.07475	1.14941	1.56757	0.589614	-0.6366	1.02917	0.749017	-0.0765397	-0.0297972	1.02562	-0.185145	0	0	0.429369	-0.0188883	-0.214803	0.167896	-0.183793	0	0	0.430218	-0.0214876	-0.00685352	-0.270442	-0.272791	0.304487	0.419509	1.17175	0	0	-0.311471	-0.111238	-0.618385	0.372123	1.0864	0	0
